<svg xmlns="http://www.w3.org/2000/svg" width="737" height="181" viewBox="0 0 737 181" fill="none"><g clip-path="url(#clip0_52_241)"><path d="M90.37 181.37C134.02 181.37 169.405 146.061 169.405 102.505C169.405 85.8774 157.389 70.5329 137.631 70.5329C95.9772 70.5329 90.6371 129.948 41.7745 129.948C25.1109 129.948 11.3354 119.133 11.3354 102.505C11.3354 146.061 46.7204 181.37 90.37 181.37Z" fill="url(#paint0_linear_52_241)"></path><path d="M15.7441 95.9928C15.7441 110.402 27.3911 122.083 41.7584 122.083C56.3588 123.181 69.7153 114.326 88.796 92.9719C69.1137 91.9874 66.5455 69.9031 41.7584 69.9031C27.3911 69.9031 15.7441 81.5839 15.7441 95.9928Z" fill="url(#paint1_linear_52_241)"></path><path d="M113.357 36.8408C113.357 48.1445 104.193 57.308 92.8895 57.308C81.5858 57.308 72.4224 48.1445 72.4224 36.8408C72.4224 16.3737 92.8895 0.944641 92.8895 0.944641C92.8895 0.944641 113.357 17.0035 113.357 36.8408Z" fill="url(#paint2_linear_52_241)"></path></g><path d="M239.62 54.6702H251.096V107.87H239.62V85.9062H219.556V107.87H208.08V54.6702H219.556V75.1902H239.62V54.6702ZM266.339 107.87V54.6702H277.815V107.87H266.339ZM313.119 54.6702C328.775 54.6702 340.099 65.8422 340.099 81.2702C340.099 96.6982 328.775 107.87 313.119 107.87H293.055V54.6702H313.119ZM312.891 97.2302C322.011 97.2302 328.319 90.5422 328.319 81.2702C328.319 71.8462 322.011 65.3862 312.891 65.3862H304.531V97.2302H312.891ZM381.687 107.87L371.275 89.7822H363.903V107.87H352.427V54.6702H373.859C384.499 54.6702 392.479 62.0422 392.479 72.3022C392.479 79.2942 388.679 84.9182 382.751 87.8062L394.531 107.87H381.687ZM363.903 65.3102V79.1422H373.099C377.963 79.1422 380.775 76.2542 380.775 72.2262C380.775 68.2742 377.963 65.3102 373.099 65.3102H363.903ZM430.499 109.086C414.235 109.086 402.075 97.0782 402.075 81.2702C402.075 65.5382 414.235 53.5302 430.499 53.5302C446.687 53.5302 458.771 65.4622 458.771 81.2702C458.771 97.1542 446.687 109.086 430.499 109.086ZM430.499 98.2182C439.999 98.2182 447.067 90.9222 447.067 81.2702C447.067 71.6182 439.999 64.3982 430.499 64.3982C420.999 64.3982 413.779 71.6942 413.779 81.2702C413.779 90.8462 420.999 98.2182 430.499 98.2182Z" fill="#3E66AD"></path><path d="M495.65 108.706C479.842 108.706 468.366 97.2302 468.366 81.3462C468.366 65.3862 479.842 53.9102 495.65 53.9102C507.962 53.9102 517.842 61.2062 520.882 72.6822H514.042C511.23 65.0062 504.39 60.3702 495.65 60.3702C483.794 60.3702 475.206 69.1102 475.206 81.3462C475.206 93.5822 483.794 102.17 495.65 102.17C504.618 102.17 511.534 97.3062 514.346 89.1742H521.11C518.07 101.182 508.19 108.706 495.65 108.706ZM534.058 107.87V54.6702H540.746V107.87H534.058ZM594.196 54.6702H600.732V107.87H595.108L564.86 66.3742V107.87H558.324V54.6702H564.404L594.196 95.7102V54.6702ZM641.926 108.706C626.118 108.706 614.642 97.2302 614.642 81.3462C614.642 65.3862 626.118 53.9102 641.926 53.9102C654.238 53.9102 664.118 61.2062 667.158 72.6822H660.318C657.506 65.0062 650.666 60.3702 641.926 60.3702C630.07 60.3702 621.482 69.1102 621.482 81.3462C621.482 93.5822 630.07 102.17 641.926 102.17C650.894 102.17 657.81 97.3062 660.622 89.1742H667.386C664.346 101.182 654.466 108.706 641.926 108.706ZM704.578 108.782C688.466 108.782 676.686 97.0022 676.686 81.3462C676.686 65.6142 688.466 53.8342 704.578 53.8342C720.69 53.8342 732.394 65.6142 732.394 81.3462C732.394 97.0022 720.69 108.782 704.578 108.782ZM704.578 102.246C716.662 102.246 725.63 93.2782 725.63 81.3462C725.63 69.3382 716.662 60.3702 704.578 60.3702C692.494 60.3702 683.526 69.4142 683.526 81.3462C683.526 93.2022 692.494 102.246 704.578 102.246Z" fill="#86C058"></path><path d="M487.401 138.366C487.401 138.702 487.373 139.038 487.317 139.374H475.053C475.445 141.838 477.209 143.35 479.673 143.35C481.493 143.35 482.949 142.51 483.761 141.11H487.037C485.833 144.302 483.061 146.262 479.673 146.262C475.249 146.262 471.917 142.846 471.917 138.31C471.917 133.802 475.249 130.386 479.673 130.386C484.321 130.386 487.401 133.97 487.401 138.366ZM479.673 133.214C477.349 133.214 475.641 134.614 475.137 136.854H484.265C483.705 134.558 481.997 133.214 479.673 133.214ZM503.706 145.87H500.206L496.454 140.13L492.646 145.87H489.202L494.578 138.058L489.622 130.75H493.122L496.454 135.846L499.898 130.75H503.314L498.302 137.918L503.706 145.87ZM515.307 130.386C519.815 130.386 523.147 133.774 523.147 138.31C523.147 142.846 519.815 146.262 515.307 146.262C513.347 146.262 511.611 145.59 510.295 144.442V151.302H507.187V130.75H509.259L509.847 132.626C511.219 131.226 513.123 130.386 515.307 130.386ZM515.055 143.294C517.911 143.294 519.983 141.166 519.983 138.31C519.983 135.482 517.911 133.354 515.055 133.354C512.199 133.354 510.099 135.482 510.099 138.31C510.099 141.166 512.199 143.294 515.055 143.294ZM541.976 138.366C541.976 138.702 541.948 139.038 541.892 139.374H529.628C530.02 141.838 531.784 143.35 534.248 143.35C536.068 143.35 537.524 142.51 538.336 141.11H541.612C540.408 144.302 537.636 146.262 534.248 146.262C529.824 146.262 526.492 142.846 526.492 138.31C526.492 133.802 529.824 130.386 534.248 130.386C538.896 130.386 541.976 133.97 541.976 138.366ZM534.248 133.214C531.924 133.214 530.216 134.614 529.712 136.854H538.84C538.28 134.558 536.572 133.214 534.248 133.214ZM553.648 130.666H554.992V133.606H553.34C550.764 133.606 549.504 135.09 549.504 137.834V145.87H546.396V130.75H548.496L549 132.822C550.092 131.394 551.576 130.666 553.648 130.666ZM565.283 143.07H567.019V145.87H564.695C561.391 145.87 559.347 143.826 559.347 140.494V133.438H556.631V132.822L561.895 127.222H562.427V130.75H566.935V133.438H562.455V140.242C562.455 142.062 563.463 143.07 565.283 143.07ZM577.975 146.262C573.327 146.262 569.883 142.874 569.883 138.31C569.883 133.746 573.327 130.386 577.975 130.386C582.595 130.386 586.039 133.774 586.039 138.31C586.039 142.874 582.595 146.262 577.975 146.262ZM577.975 143.294C580.831 143.294 582.875 141.222 582.875 138.31C582.875 135.426 580.831 133.354 577.975 133.354C575.091 133.354 573.047 135.426 573.047 138.31C573.047 141.222 575.091 143.294 577.975 143.294ZM595.51 146.262C591.842 146.262 589.434 144.218 589.35 141.082H592.374C592.458 142.678 593.802 143.518 595.622 143.518C597.302 143.518 598.59 142.818 598.59 141.558C598.59 140.102 596.966 139.794 595.118 139.486C592.598 139.038 589.63 138.478 589.63 134.978C589.63 132.262 591.954 130.386 595.482 130.386C598.982 130.386 601.278 132.318 601.334 135.23H598.394C598.338 133.802 597.218 133.018 595.398 133.018C593.69 133.018 592.626 133.774 592.626 134.866C592.626 136.21 594.166 136.462 595.986 136.77C598.534 137.19 601.642 137.694 601.642 141.418C601.642 144.358 599.206 146.262 595.51 146.262ZM628.649 138.366C628.649 138.702 628.621 139.038 628.565 139.374H616.301C616.693 141.838 618.457 143.35 620.921 143.35C622.741 143.35 624.197 142.51 625.009 141.11H628.285C627.081 144.302 624.309 146.262 620.921 146.262C616.497 146.262 613.165 142.846 613.165 138.31C613.165 133.802 616.497 130.386 620.921 130.386C625.569 130.386 628.649 133.97 628.649 138.366ZM620.921 133.214C618.597 133.214 616.889 134.614 616.385 136.854H625.513C624.953 134.558 623.245 133.214 620.921 133.214ZM641.049 130.414C644.605 130.414 646.817 133.046 646.817 136.77V145.87H643.709V137.414C643.709 134.67 642.505 133.214 640.237 133.214C637.857 133.214 636.177 135.118 636.177 137.778V145.87H633.069V130.75H635.225L635.841 132.878C636.961 131.338 638.837 130.414 641.049 130.414ZM672.985 130.75H675.365V145.87H672.873L672.565 144.05C671.193 145.422 669.289 146.262 667.077 146.262C662.569 146.262 659.209 142.846 659.209 138.31C659.209 133.774 662.569 130.386 667.077 130.386C669.317 130.386 671.249 131.226 672.621 132.654L672.985 130.75ZM667.329 143.266C670.185 143.266 672.257 141.166 672.257 138.31C672.257 135.454 670.185 133.354 667.329 133.354C664.473 133.354 662.373 135.482 662.373 138.31C662.373 141.138 664.473 143.266 667.329 143.266ZM693.293 130.75H695.337V143.91C695.337 148.726 692.481 151.666 687.805 151.666C683.913 151.666 681.169 149.65 680.413 146.346H683.493C684.081 147.998 685.873 148.922 687.777 148.922C690.381 148.922 692.313 147.186 692.313 144.33V143.63C690.997 144.778 689.261 145.45 687.301 145.45C683.073 145.45 679.825 142.174 679.825 137.918C679.825 133.69 683.073 130.386 687.301 130.386C689.513 130.386 691.445 131.282 692.817 132.71L693.293 130.75ZM687.637 142.566C690.325 142.566 692.285 140.606 692.285 137.918C692.285 135.258 690.353 133.298 687.637 133.298C684.949 133.298 682.989 135.286 682.989 137.918C682.989 140.578 684.949 142.566 687.637 142.566ZM707.541 146.262C703.369 146.262 700.653 143.574 700.653 139.486V130.75H703.761V139.066C703.761 141.698 705.189 143.294 707.541 143.294C709.893 143.294 711.293 141.67 711.293 139.066V130.75H714.401V139.486C714.401 143.574 711.713 146.262 707.541 146.262ZM732.372 130.75H734.752V145.87H732.26L731.952 144.05C730.58 145.422 728.676 146.262 726.464 146.262C721.956 146.262 718.596 142.846 718.596 138.31C718.596 133.774 721.956 130.386 726.464 130.386C728.704 130.386 730.636 131.226 732.008 132.654L732.372 130.75ZM726.716 143.266C729.572 143.266 731.644 141.166 731.644 138.31C731.644 135.454 729.572 133.354 726.716 133.354C723.86 133.354 721.76 135.482 721.76 138.31C721.76 141.138 723.86 143.266 726.716 143.266Z" fill="#86C058"></path><defs><linearGradient id="paint0_linear_52_241" x1="-14.1697" y1="108.318" x2="183.259" y2="108.318" gradientUnits="userSpaceOnUse"><stop stop-color="#2D337E"></stop><stop offset="0.390395" stop-color="#3E66AD"></stop><stop offset="0.732699" stop-color="#7AC4ED"></stop><stop offset="1" stop-color="#78C5C5"></stop></linearGradient><linearGradient id="paint1_linear_52_241" x1="15.7441" y1="92.8893" x2="88.796" y2="93.5191" gradientUnits="userSpaceOnUse"><stop stop-color="#3D9A57"></stop><stop offset="1" stop-color="#86C058"></stop></linearGradient><linearGradient id="paint2_linear_52_241" x1="72.4224" y1="20.1594" x2="113.361" y2="20.4086" gradientUnits="userSpaceOnUse"><stop stop-color="#2D337E"></stop><stop offset="0.390395" stop-color="#3E66AD"></stop><stop offset="0.732699" stop-color="#7AC4ED"></stop><stop offset="1" stop-color="#78C5C5"></stop></linearGradient><clipPath id="clip0_52_241"><rect width="182" height="180.74" fill="white"></rect></clipPath></defs></svg>